# xmcd CD database file
#
# Track frame offsets:
#	150
#	14639
#	35304
#	50893
#	62852
#	79070
#	100278
#	116269
#	130934
#	145645
#	162745
#	174590
#	185927
#	201085
#	215881
#	232526
#	249792
#	264695
#	281464
#	293239
#	309563
#
# Disc length: 4331 seconds
#
# Revision: 0
# Processed by: cddbd v1.5.2PL0 Copyright (c) Steve Scherf et al.
# Submitted via: CDex 1.70beta1
#
DISCID=3c10e915
DTITLE=Alex Welsh - Vintage Alex Welsh 
DYEAR=1900
DGENRE=Jazz
TTITLE0=Farewell Blues
TTITLE1=New Orleans Masquerade
TTITLE2=A Good Man Is Hard To Find
TTITLE3=Coal Cart Blues
TTITLE4=Won't You Come Home Bill Bailey
TTITLE5=Back O' Town Blues
TTITLE6=Original Dixieland One-Step
TTITLE7=You've Been A Good Old Wagon
TTITLE8=Froggie Moore Rag
TTITLE9=When It's Sleepy Time Down South
TTITLE10=Gimme A Pigfoot and A Bottle Of Beer
TTITLE11=Beale Street Blues
TTITLE12=There'll Be Some Changes Made
TTITLE13=Keeping Out Of Mischief Now
TTITLE14=Sheik Of Araby
TTITLE15=St Louis Blues
TTITLE16=Goody Goody
TTITLE17=If I Had You
TTITLE18=Swinging The Blues
TTITLE19=Home
TTITLE20=All Of Me
EXTD=
EXTT0=
EXTT1=
EXTT2=
EXTT3=
EXTT4=
EXTT5=
EXTT6=
EXTT7=
EXTT8=
EXTT9=
EXTT10=
EXTT11=
EXTT12=
EXTT13=
EXTT14=
EXTT15=
EXTT16=
EXTT17=
EXTT18=
EXTT19=
EXTT20=
PLAYORDER=
